<svg width="120" height="120" viewBox="0 0 120 120" fill="none" xmlns="http://www.w3.org/2000/svg">
<path fill-rule="evenodd" clip-rule="evenodd" d="M90 62.4H30V57.0667H90V62.4Z" fill="#5E1B89"/>
<path fill-rule="evenodd" clip-rule="evenodd" d="M56.4 88.8L56.4 28.8L61.7333 28.8L61.7333 88.8H56.4Z" fill="#5E1B89"/>
<path fill-rule="evenodd" clip-rule="evenodd" d="M110 5.33333H10C7.42267 5.33333 5.33333 7.42267 5.33333 10V19.2H0V10C0 4.47715 4.47715 0 10 0H110C115.523 0 120 4.47715 120 10V96H114.667V10C114.667 7.42267 112.577 5.33333 110 5.33333ZM96 114.667H10C7.42267 114.667 5.33333 112.577 5.33333 110V48H0V110C0 115.523 4.47715 120 10 120H96V114.667Z" fill="#F4512C"/>
<path fill-rule="evenodd" clip-rule="evenodd" d="M10 5.33333H110C112.577 5.33333 114.667 7.42267 114.667 10V96H120V10C120 4.47715 115.523 0 110 0H10C4.47715 0 0 4.47715 0 10V19.2H5.33333V10C5.33333 7.42267 7.42267 5.33333 10 5.33333Z" fill="#5E1B89"/>
</svg>
