<svg width="105" height="105" viewBox="0 0 105 105" fill="none" xmlns="http://www.w3.org/2000/svg">
<path fill-rule="evenodd" clip-rule="evenodd" d="M94.5547 5.45833H10.4922C7.91486 5.45833 5.82552 7.54767 5.82552 10.125V16.775H0.492188V10.125C0.492188 4.60215 4.96934 0.125 10.4922 0.125H94.5547C100.078 0.125 104.555 4.60215 104.555 10.125V83.375H99.2214V10.125C99.2214 7.54767 97.132 5.45833 94.5547 5.45833ZM83.7422 98.8542H10.4922C7.91486 98.8542 5.82552 96.7648 5.82552 94.1875V41.75H0.492188V94.1875C0.492188 99.7104 4.96934 104.188 10.4922 104.188H83.7422V98.8542Z" fill="#F4512C"/>
<path fill-rule="evenodd" clip-rule="evenodd" d="M10.4922 5.45833H94.5547C97.132 5.45833 99.2214 7.54767 99.2214 10.125V83.375H104.555V10.125C104.555 4.60215 100.078 0.125 94.5547 0.125H10.4922C4.96934 0.125 0.492188 4.60215 0.492188 10.125V16.775H5.82552V10.125C5.82552 7.54767 7.91486 5.45833 10.4922 5.45833Z" fill="#5E1B89"/>
<path d="M34.9299 45.7526C35.239 45.7576 35.5461 45.7011 35.8332 45.5863C36.1202 45.4714 36.3816 45.3006 36.602 45.0838C36.8224 44.8669 36.9974 44.6084 37.1169 44.3232C37.2364 44.0381 37.298 43.732 37.298 43.4228C37.298 43.1136 37.2364 42.8075 37.1169 42.5223C36.9974 42.2372 36.8224 41.9786 36.602 41.7618C36.3816 41.5449 36.1202 41.3741 35.8332 41.2593C35.5461 41.1445 35.239 41.088 34.9299 41.093C34.3119 41.093 33.7192 41.3385 33.2823 41.7755C32.8453 42.2124 32.5998 42.8051 32.5998 43.4231C32.5998 44.0411 32.8453 44.6337 33.2823 45.0707C33.7192 45.5077 34.3119 45.7526 34.9299 45.7526ZM28.5878 52.9148C29.2058 52.9148 29.7985 52.6694 30.2355 52.2324C30.6724 51.7954 30.9179 51.2027 30.9179 50.5847C30.9179 49.9668 30.6724 49.3741 30.2355 48.9371C29.7985 48.5001 29.2058 48.2546 28.5878 48.2546C27.9698 48.2546 27.3772 48.5001 26.9402 48.9371C26.5032 49.3741 26.2577 49.9668 26.2577 50.5847C26.2577 51.2027 26.5032 51.7954 26.9402 52.2324C27.3772 52.6694 27.9698 52.9148 28.5878 52.9148Z" fill="#5E1B89"/>
<path fill-rule="evenodd" clip-rule="evenodd" d="M68.8831 28.1417C67.6168 27.4857 66.1417 27.3596 64.7825 27.7912C63.4232 28.2227 62.291 29.1764 61.6348 30.4427L55.6689 41.9614C55.6373 42.0223 55.6096 42.0851 55.586 42.1495C52.6639 42.0493 49.7691 43.3402 47.8169 45.6252C45.5159 48.3171 42.686 51.2553 40.268 52.7553C36.8202 54.8942 33.9699 55.6649 32.1996 55.9384C31.71 56.0132 31.246 56.2063 30.848 56.501C30.4499 56.7957 30.1297 57.1831 29.9153 57.6295C29.4872 58.5326 29.5194 59.7153 30.3507 60.6307C32.1569 62.6212 35.6784 65.881 42.1373 69.9895C46.6107 72.8348 50.6214 74.4078 52.7802 75.1371C54.4348 75.6957 56.2027 75.0567 57.1515 73.6353C58.3515 71.8377 60.4596 68.448 62.2695 64.3235C63.608 61.2728 64.761 58.1274 65.8652 54.9882C66.7961 52.3396 66.3773 49.5462 64.9621 47.3379L71.1792 35.4004C71.5058 34.7732 71.7055 34.0877 71.7668 33.3832C71.8282 32.6787 71.75 31.969 71.5367 31.2948C71.3234 30.6206 70.9793 29.995 70.5239 29.4539C70.0686 28.9129 69.511 28.4669 68.8831 28.1417ZM62.6171 44.8773L68.3264 33.9146C68.4647 33.6622 68.5511 33.3847 68.5806 33.0984C68.6102 32.8121 68.5823 32.5227 68.4985 32.2474C68.4147 31.972 68.2768 31.7161 68.0928 31.4948C67.9087 31.2735 67.6824 31.0911 67.427 30.9585C67.1715 30.8258 66.8922 30.7455 66.6053 30.7223C66.3184 30.6991 66.0297 30.7334 65.7563 30.8232C65.4828 30.913 65.2301 31.0566 65.0129 31.2454C64.7957 31.4343 64.6183 31.6646 64.4913 31.9229L58.8229 42.8639C59.0128 42.9443 59.2008 43.0315 59.3876 43.1262L61.4586 44.1765C61.8668 44.3831 62.2528 44.6175 62.6165 44.8767L62.6171 44.8773ZM62.8305 53.9212C62.6017 54.5732 62.3604 55.2511 62.1093 55.9414L49.0577 49.0915C49.4784 48.6233 49.8804 48.1612 50.2627 47.7146C52.205 45.4408 55.3942 44.7078 57.934 45.9957L60.005 47.046C62.5565 48.3394 63.7633 51.2707 62.8318 53.9212H62.8305ZM41.9635 55.4887C43.5507 54.5039 45.2066 53.0652 46.7604 51.5188L46.7814 51.5299L60.9773 58.9792C60.4571 60.3422 59.906 61.6933 59.3245 63.0313C57.6155 66.9258 55.6151 70.1447 54.4775 71.8489C54.3155 72.092 54.052 72.1711 53.8095 72.0901C52.4775 71.6358 51.1687 71.1162 49.8878 70.5332C50.6381 69.7414 51.7268 68.4487 52.7697 66.6709C53.2206 65.9033 52.9602 64.9285 52.1883 64.4936C51.4163 64.0588 50.4247 64.3297 49.9738 65.0973C49.1351 66.5262 48.1113 67.9328 46.8557 69.0301C45.8378 68.481 44.8398 67.8957 43.8637 67.2753C43.0702 66.7711 42.2846 66.2548 41.507 65.7264C41.9424 65.4317 42.3603 65.1117 42.7584 64.7682C43.4344 64.1887 43.5019 63.1854 42.908 62.5291C42.3142 61.8728 41.2856 61.8097 40.6089 62.3899C39.613 63.2435 38.9184 63.5682 38.6375 63.6777C36.0767 61.754 34.3608 60.1736 33.2505 59.0219C35.4019 58.6217 38.4402 57.674 41.9635 55.4887Z" fill="#5E1B89"/>
</svg>
