<svg width="120" height="120" viewBox="0 0 120 120" fill="none" xmlns="http://www.w3.org/2000/svg">
<circle cx="60" cy="60" r="60" fill="#FFF1C6"/>
<path d="M39.2515 52.7114C39.6122 52.7172 39.9704 52.6513 40.3054 52.5173C40.6403 52.3834 40.9452 52.1841 41.2023 51.9311C41.4595 51.6781 41.6637 51.3765 41.8031 51.0438C41.9425 50.7111 42.0143 50.354 42.0143 49.9933C42.0143 49.6325 41.9425 49.2754 41.8031 48.9427C41.6637 48.61 41.4595 48.3084 41.2023 48.0554C40.9452 47.8025 40.6403 47.6032 40.3054 47.4692C39.9704 47.3353 39.6122 47.2693 39.2515 47.2752C38.5306 47.2752 37.8391 47.5616 37.3293 48.0714C36.8195 48.5812 36.5331 49.2726 36.5331 49.9936C36.5331 50.7146 36.8195 51.4061 37.3293 51.9159C37.8391 52.4257 38.5306 52.7114 39.2515 52.7114ZM31.8525 61.0673C32.5735 61.0673 33.2649 60.7809 33.7747 60.2711C34.2845 59.7613 34.5709 59.0699 34.5709 58.3489C34.5709 57.6279 34.2845 56.9365 33.7747 56.4266C33.2649 55.9168 32.5735 55.6304 31.8525 55.6304C31.1315 55.6304 30.44 55.9168 29.9302 56.4266C29.4204 56.9365 29.134 57.6279 29.134 58.3489C29.134 59.0699 29.4204 59.7613 29.9302 60.2711C30.44 60.7809 31.1315 61.0673 31.8525 61.0673Z" fill="#FFC107"/>
<path fill-rule="evenodd" clip-rule="evenodd" d="M78.8636 32.1653C77.3862 31.4 75.6654 31.2529 74.0795 31.7564C72.4937 32.2598 71.1728 33.3725 70.4073 34.8498L63.447 48.2884C63.4102 48.3594 63.3779 48.4326 63.3503 48.5077C59.9412 48.3908 56.5639 49.8969 54.2864 52.5627C51.6019 55.7033 48.3003 59.1311 45.4794 60.8811C41.4569 63.3766 38.1315 64.2758 36.0662 64.5948C35.495 64.682 34.9537 64.9074 34.4893 65.2512C34.0249 65.595 33.6514 66.0469 33.4011 66.5677C32.9018 67.6213 32.9393 69.0011 33.9092 70.0692C36.0164 72.3915 40.1247 76.1945 47.6602 80.9877C52.8792 84.3073 57.5583 86.1425 60.0769 86.9933C62.0073 87.645 64.0698 86.8995 65.1768 85.2411C66.5768 83.144 69.0362 79.1894 71.1477 74.3774C72.7094 70.8183 74.0545 67.1487 75.3427 63.4863C76.4288 60.3962 75.9402 57.1372 74.2891 54.5609L81.5424 40.6338C81.9234 39.9021 82.1564 39.1023 82.228 38.2804C82.2995 37.4585 82.2083 36.6305 81.9595 35.8439C81.7107 35.0573 81.3092 34.3275 80.7779 33.6963C80.2467 33.065 79.5962 32.5448 78.8636 32.1653ZM71.5533 51.6902L78.2141 38.9004C78.3754 38.6059 78.4763 38.2821 78.5108 37.9481C78.5452 37.6141 78.5126 37.2765 78.4149 36.9553C78.3171 36.634 78.1562 36.3355 77.9415 36.0773C77.7269 35.8191 77.4628 35.6063 77.1648 35.4516C76.8668 35.2968 76.5408 35.2031 76.2061 35.176C75.8714 35.1489 75.5347 35.1889 75.2157 35.2937C74.8966 35.3985 74.6018 35.566 74.3483 35.7863C74.0949 36.0066 73.8881 36.2754 73.7399 36.5767L67.1267 49.3412C67.3482 49.4351 67.5676 49.5368 67.7856 49.6472L70.2016 50.8726C70.6779 51.1136 71.1282 51.3871 71.5526 51.6895L71.5533 51.6902ZM71.8023 62.2415C71.5353 63.0021 71.2538 63.793 70.9608 64.5984L55.734 56.6068C56.2247 56.0605 56.6938 55.5215 57.1398 55.0004C59.4058 52.3476 63.1266 51.4925 66.0897 52.995L68.5058 54.2203C71.4826 55.7293 72.8905 59.1492 71.8037 62.2415H71.8023ZM47.4574 64.0701C49.3092 62.9212 51.241 61.2427 53.0538 59.4386L53.0783 59.4516L69.6402 68.1424C69.0333 69.7326 68.3903 71.3088 67.712 72.8699C65.718 77.4134 63.3842 81.1689 62.0571 83.157C61.868 83.4406 61.5606 83.533 61.2777 83.4385C59.7238 82.9084 58.1968 82.3022 56.7025 81.6221C57.5778 80.6984 58.8479 79.1901 60.0646 77.1161C60.5907 76.2205 60.2869 75.0832 59.3863 74.5759C58.4857 74.0686 57.3289 74.3846 56.8028 75.2802C55.8242 76.9472 54.6299 78.5883 53.1649 79.8685C51.9774 79.2278 50.8131 78.545 49.6743 77.8211C48.7486 77.233 47.832 76.6306 46.9248 76.0141C47.4328 75.6703 47.9203 75.297 48.3847 74.8963C49.1735 74.2201 49.2522 73.0496 48.5594 72.2839C47.8666 71.5183 46.6665 71.4446 45.877 72.1216C44.7152 73.1174 43.9047 73.4963 43.5771 73.624C40.5895 71.3797 38.5876 69.5359 37.2923 68.1922C39.8022 67.7253 43.3469 66.6197 47.4574 64.0701Z" fill="#FFC107"/>
</svg>
