<svg width="120" height="120" viewBox="0 0 120 120" fill="none" xmlns="http://www.w3.org/2000/svg">
<circle cx="60" cy="60" r="60" fill="#FAE2FE"/>
<g clip-path="url(#clip0_38_12)">
<path d="M93.4521 48.8821C91.396 46.8259 88.0504 46.826 85.9937 48.8825L80.7052 54.1754V40.2452C80.7052 38.8366 80.1567 37.5124 79.1606 36.5164L74.1889 31.5445C73.1929 30.5484 71.8686 30 70.46 30H40.2755C37.3678 30 35.0021 32.3657 35.0021 35.2734V84.7266C35.0021 87.6343 37.3678 90 40.2755 90H75.4318C78.3396 90 80.7052 87.6343 80.7052 84.7266V69.0974L93.4519 56.3399C95.5129 54.279 95.5134 50.9432 93.4521 48.8821ZM70.1585 33.5156C70.4906 33.5156 71.1305 33.4581 71.703 34.0304L76.6748 39.0023C77.2326 39.5603 77.1897 40.1716 77.1897 40.5469H70.1585V33.5156ZM77.1896 84.7266C77.1896 85.6958 76.4012 86.4844 75.4318 86.4844H40.2755C39.3063 86.4844 38.5177 85.6958 38.5177 84.7266V35.2734C38.5177 34.3042 39.3063 33.5156 40.2755 33.5156H66.6427V42.3047C66.6427 43.2755 67.4298 44.0625 68.4005 44.0625H77.1896V57.6941L72.0034 62.8847L69.5186 65.3695C69.3257 65.5625 69.1803 65.7977 69.0939 66.0566L66.6079 73.5144C66.5046 73.8241 66.4896 74.1565 66.5646 74.4742C66.6396 74.792 66.8016 75.0826 67.0324 75.3134C67.2633 75.5443 67.5539 75.7063 67.8716 75.7812C68.1894 75.8562 68.5217 75.8412 68.8314 75.7379L76.2893 73.252C76.5482 73.1658 76.7834 73.0204 76.9763 72.8273L77.1896 72.6141V84.7266ZM73.2474 66.6125L75.7333 69.0984L74.7837 70.048L71.055 71.2909L72.2978 67.562L73.2474 66.6125ZM78.2187 66.612L75.7328 64.1261L84.1827 55.6691L86.6686 58.155L78.2187 66.612ZM90.9656 53.8545L89.1535 55.668L86.6676 53.1821L88.4803 51.368C89.166 50.6825 90.281 50.6827 90.9663 51.368C91.6515 52.0535 91.6551 53.1648 90.9656 53.8545Z" fill="#5E1B89"/>
<path d="M68.4005 47.5781H43.7912C42.8204 47.5781 42.0334 48.3652 42.0334 49.3359C42.0334 50.3067 42.8204 51.0938 43.7912 51.0938H68.4005C69.3713 51.0938 70.1584 50.3067 70.1584 49.3359C70.1584 48.3652 69.3713 47.5781 68.4005 47.5781ZM61.3693 54.6094H43.7912C42.8204 54.6094 42.0334 55.3964 42.0334 56.3672C42.0334 57.338 42.8204 58.125 43.7912 58.125H61.3693C62.3401 58.125 63.1271 57.338 63.1271 56.3672C63.1271 55.3964 62.3401 54.6094 61.3693 54.6094ZM61.3693 61.6406H43.7912C42.8204 61.6406 42.0334 62.4277 42.0334 63.3984C42.0334 64.3692 42.8204 65.1562 43.7912 65.1562H61.3693C62.3401 65.1562 63.1271 64.3692 63.1271 63.3984C63.1271 62.4277 62.3401 61.6406 61.3693 61.6406ZM61.3693 68.6719H43.7912C42.8204 68.6719 42.0334 69.4589 42.0334 70.4297C42.0334 71.4005 42.8204 72.1875 43.7912 72.1875H61.3693C62.3401 72.1875 63.1271 71.4005 63.1271 70.4297C63.1271 69.4589 62.3401 68.6719 61.3693 68.6719ZM68.4005 79.4531H57.8537C56.8829 79.4531 56.0959 80.2402 56.0959 81.2109C56.0959 82.1817 56.8829 82.9688 57.8537 82.9688H68.4005C69.3713 82.9688 70.1584 82.1817 70.1584 81.2109C70.1584 80.2402 69.3713 79.4531 68.4005 79.4531Z" fill="#5E1B89"/>
</g>
<defs>
<clipPath id="clip0_38_12">
<rect width="60" height="60" fill="white" transform="translate(35 30)"/>
</clipPath>
</defs>
</svg>
