<svg width="120" height="120" viewBox="0 0 120 120" fill="none" xmlns="http://www.w3.org/2000/svg">
<circle cx="60" cy="60" r="60" fill="#FEE2E2"/>
<g clip-path="url(#clip0_25_8)">
<path d="M59.9992 71.1191C58.3218 71.1191 56.9157 72.5252 56.9157 74.2026C56.9157 75.88 58.3218 77.2861 59.9992 77.2861C61.6149 77.2861 63.0827 75.88 63.0087 74.2766C63.0827 72.5128 61.6889 71.1191 59.9992 71.1191Z" fill="#FF3131"/>
<path d="M88.5398 82.047C90.4763 78.7045 90.4886 74.7206 88.5645 71.3904L69.2496 37.9408C67.3378 34.5737 63.8843 32.5756 60.0115 32.5756C56.1386 32.5756 52.6851 34.586 50.7734 37.9285L31.4338 71.4151C29.5097 74.7823 29.522 78.7908 31.4708 82.1333C33.3949 85.4388 36.836 87.4245 40.6842 87.4245H79.2647C83.1252 87.4245 86.5911 85.4141 88.5398 82.047ZM84.3463 79.6295C83.2733 81.4796 81.3738 82.5773 79.2524 82.5773H40.6719C38.5751 82.5773 36.688 81.5043 35.6396 79.6912C34.5789 77.8534 34.5666 75.658 35.6273 73.8079L54.9669 40.3336C56.0153 38.4959 57.89 37.4105 60.0115 37.4105C62.1206 37.4105 64.0077 38.5082 65.056 40.3459L84.3833 73.8202C85.4194 75.621 85.407 77.7917 84.3463 79.6295Z" fill="#FF3131"/>
<path d="M59.2345 49.4731C57.7668 49.8924 56.8541 51.2245 56.8541 52.8402C56.9281 53.8146 56.9897 54.8013 57.0637 55.7757C57.2734 59.4882 57.4831 63.1267 57.6928 66.8392C57.7668 68.0973 58.7412 69.01 59.9992 69.01C61.2573 69.01 62.244 68.0356 62.3057 66.7652C62.3057 66.0005 62.3057 65.2975 62.3797 64.5204C62.5153 62.14 62.6633 59.7595 62.799 57.3791C62.873 55.8374 63.0087 54.2956 63.0827 52.7539C63.0827 52.1989 63.0087 51.7055 62.799 51.2121C62.17 49.8307 60.7022 49.1277 59.2345 49.4731Z" fill="#FF3131"/>
</g>
<defs>
<clipPath id="clip0_25_8">
<rect width="60" height="60" fill="white" transform="translate(30 30)"/>
</clipPath>
</defs>
</svg>
