<svg width="185" height="265" viewBox="0 0 185 265" fill="none" xmlns="http://www.w3.org/2000/svg">
<path fill-rule="evenodd" clip-rule="evenodd" d="M35.2791 23.1643H10C4.47715 23.1643 0 27.6415 0 33.1643V51.8881H5.3333V33.1643C5.3333 30.587 7.42266 28.4976 10 28.4976H35.2791V23.1643ZM148.86 28.4976H175C177.577 28.4976 179.667 30.587 179.667 33.1643V242.762H185V33.1643C185 27.6415 180.523 23.1643 175 23.1643H148.86V28.4976ZM10 259.667H164.349V265H10C4.47716 265 0 260.523 0 255V74.1259H5.3333V255C5.3333 257.577 7.42265 259.667 10 259.667Z" fill="#F4512C"/>
<path fill-rule="evenodd" clip-rule="evenodd" d="M10 23.1643H35.2791V28.4976H10C7.42266 28.4976 5.3333 30.587 5.3333 33.1643V51.8881H0V33.1643C0 27.6415 4.47715 23.1643 10 23.1643ZM175 28.4976H148.86V23.1643H175C180.523 23.1643 185 27.6415 185 33.1643V242.762H179.667V33.1643C179.667 30.587 177.577 28.4976 175 28.4976Z" fill="#5E1B89"/>
<rect x="37.9456" y="2.6665" width="108.248" height="40.9957" rx="7.3335" stroke="#5E1B89" stroke-width="5.333"/>
<line y1="-2.66665" x2="7.35161" y2="-2.66665" transform="matrix(0.680483 0.732764 -0.680483 0.732764 30.1808 92.261)" stroke="#5E1B89" stroke-width="5.3333"/>
<line y1="-2.66665" x2="13.2329" y2="-2.66665" transform="matrix(0.680483 -0.732764 0.680483 0.732764 35.1835 97.6479)" stroke="white" stroke-width="5.3333"/>
<line y1="-2.66665" x2="14.7032" y2="-2.66665" transform="matrix(0.680483 -0.732764 0.680483 0.732764 35.1835 97.6479)" stroke="#5E1B89" stroke-width="5.3333"/>
<path d="M51.7578 91.8466C51.7578 100.862 45.0162 107.827 37.1076 107.827C29.1989 107.827 22.4574 100.862 22.4574 91.8466C22.4574 82.8314 29.1989 75.866 37.1076 75.866C45.0162 75.866 51.7578 82.8314 51.7578 91.8466Z" stroke="#5E1B89" stroke-width="5.3333"/>
<line y1="-2.66665" x2="7.35161" y2="-2.66665" transform="matrix(0.680483 0.732764 -0.680483 0.732764 30.1808 149.129)" stroke="#5E1B89" stroke-width="5.3333"/>
<line y1="-2.66665" x2="13.2329" y2="-2.66665" transform="matrix(0.680483 -0.732764 0.680483 0.732764 35.1834 154.516)" stroke="white" stroke-width="5.3333"/>
<line y1="-2.66665" x2="14.7032" y2="-2.66665" transform="matrix(0.680483 -0.732764 0.680483 0.732764 35.1834 154.516)" stroke="#5E1B89" stroke-width="5.3333"/>
<path d="M51.7578 148.715C51.7578 157.73 45.0162 164.696 37.1076 164.696C29.1989 164.696 22.4574 157.73 22.4574 148.715C22.4574 139.7 29.1989 132.734 37.1076 132.734C45.0162 132.734 51.7578 139.7 51.7578 148.715Z" stroke="#5E1B89" stroke-width="5.3333"/>
<line y1="-2.66665" x2="7.35161" y2="-2.66665" transform="matrix(0.680483 0.732764 -0.680483 0.732764 30.1808 205.071)" stroke="#5E1B89" stroke-width="5.3333"/>
<line y1="-2.66665" x2="13.2329" y2="-2.66665" transform="matrix(0.680483 -0.732764 0.680483 0.732764 35.1834 210.458)" stroke="white" stroke-width="5.3333"/>
<line y1="-2.66665" x2="14.7032" y2="-2.66665" transform="matrix(0.680483 -0.732764 0.680483 0.732764 35.1834 210.458)" stroke="#5E1B89" stroke-width="5.3333"/>
<path d="M51.7578 204.657C51.7578 213.672 45.0162 220.638 37.1076 220.638C29.1989 220.638 22.4574 213.672 22.4574 204.657C22.4574 195.642 29.1989 188.676 37.1076 188.676C45.0162 188.676 51.7578 195.642 51.7578 204.657Z" stroke="#5E1B89" stroke-width="5.3333"/>
<line x1="62.814" y1="83.5047" x2="75.1751" y2="83.5047" stroke="#5E1B89" stroke-width="5.3333"/>
<line x1="87.5363" y1="83.5047" x2="99.8974" y2="83.5047" stroke="#5E1B89" stroke-width="5.3333"/>
<line x1="112.259" y1="83.5047" x2="161.703" y2="83.5047" stroke="#5E1B89" stroke-width="5.3333"/>
<line x1="62.814" y1="92.0236" x2="161.703" y2="92.0236" stroke="#5E1B89" stroke-width="5.3333"/>
<line x1="62.814" y1="100.543" x2="112.259" y2="100.543" stroke="#5E1B89" stroke-width="5.3333"/>
<line x1="62.814" y1="195.261" x2="75.1751" y2="195.26" stroke="#5E1B89" stroke-width="5.3333"/>
<line x1="87.5363" y1="195.261" x2="99.8974" y2="195.261" stroke="#5E1B89" stroke-width="5.3333"/>
<line x1="112.259" y1="195.261" x2="161.703" y2="195.261" stroke="#5E1B89" stroke-width="5.3333"/>
<line x1="62.814" y1="203.779" x2="161.703" y2="203.779" stroke="#5E1B89" stroke-width="5.3333"/>
<line x1="62.814" y1="212.298" x2="112.259" y2="212.298" stroke="#5E1B89" stroke-width="5.3333"/>
<line x1="62.814" y1="139.708" x2="75.1751" y2="139.708" stroke="#5E1B89" stroke-width="5.3333"/>
<line x1="87.5363" y1="139.708" x2="99.8974" y2="139.708" stroke="#5E1B89" stroke-width="5.3333"/>
<line x1="112.259" y1="139.708" x2="161.703" y2="139.708" stroke="#5E1B89" stroke-width="5.3333"/>
<line x1="62.814" y1="148.227" x2="161.703" y2="148.227" stroke="#5E1B89" stroke-width="5.3333"/>
<line x1="62.814" y1="156.745" x2="112.259" y2="156.745" stroke="#5E1B89" stroke-width="5.3333"/>
<path d="M56.36 30V16H61.14C62.78 16 64.1267 16.2933 65.18 16.88C66.2467 17.4533 67.0333 18.2667 67.54 19.32C68.06 20.36 68.32 21.5867 68.32 23C68.32 24.4133 68.06 25.6467 67.54 26.7C67.0333 27.74 66.2467 28.5533 65.18 29.14C64.1267 29.7133 62.78 30 61.14 30H56.36ZM58.92 27.8H61.02C62.1933 27.8 63.12 27.6133 63.8 27.24C64.48 26.8533 64.9667 26.3067 65.26 25.6C65.5533 24.88 65.7 24.0133 65.7 23C65.7 22 65.5533 21.14 65.26 20.42C64.9667 19.7 64.48 19.1467 63.8 18.76C63.12 18.3733 62.1933 18.18 61.02 18.18H58.92V27.8ZM81.9044 30.24C80.5044 30.24 79.2777 29.9333 78.2244 29.32C77.1844 28.7067 76.3644 27.86 75.7644 26.78C75.1777 25.6867 74.8844 24.4267 74.8844 23C74.8844 21.5733 75.1777 20.32 75.7644 19.24C76.3644 18.1467 77.1844 17.2933 78.2244 16.68C79.2777 16.0667 80.5044 15.76 81.9044 15.76C83.291 15.76 84.511 16.0667 85.5644 16.68C86.6177 17.2933 87.4377 18.1467 88.0244 19.24C88.611 20.32 88.9044 21.5733 88.9044 23C88.9044 24.4267 88.611 25.6867 88.0244 26.78C87.4377 27.86 86.6177 28.7067 85.5644 29.32C84.511 29.9333 83.291 30.24 81.9044 30.24ZM81.9044 27.94C83.2377 27.94 84.2977 27.5 85.0844 26.62C85.8844 25.74 86.2844 24.5333 86.2844 23C86.2844 21.4667 85.8844 20.26 85.0844 19.38C84.2977 18.5 83.2377 18.06 81.9044 18.06C80.571 18.06 79.5044 18.5 78.7044 19.38C77.9044 20.26 77.5044 21.4667 77.5044 23C77.5044 24.5333 77.9044 25.74 78.7044 26.62C79.5044 27.5 80.571 27.94 81.9044 27.94ZM95.9303 30V16H98.4903L105.07 25.86V16H107.63V30H105.07L98.4903 20.16V30H95.9303ZM115.11 30V16H124.25V18.06H117.67V21.9H123.65V23.9H117.67V27.94H124.25V30H115.11Z" fill="#5E1B89"/>
</svg>
