<svg width="120" height="120" viewBox="0 0 120 120" fill="none" xmlns="http://www.w3.org/2000/svg">
<circle cx="60" cy="60" r="60" fill="#FEEFE2"/>
<path d="M48.775 61.5253L46.825 67.3753C46.5596 68.1483 46.5174 68.9804 46.7031 69.7763C46.8888 70.5722 47.2949 71.2996 47.875 71.8753C48.4523 72.4529 49.1798 72.8573 49.9751 73.0429C50.7703 73.2285 51.6017 73.1877 52.375 72.9253L58.25 70.9753C58.5216 70.88 58.769 70.7264 58.975 70.5253L85.475 44.0003C86.2918 43.1804 86.7503 42.0702 86.7503 40.9128C86.7503 39.7555 86.2918 38.6453 85.475 37.8253L81.925 34.2753C81.105 33.4586 79.9948 33 78.8375 33C77.6802 33 76.57 33.4586 75.75 34.2753L49.225 60.8003C49.024 61.0063 48.8704 61.2538 48.775 61.5253ZM78.4 36.9253C78.5197 36.8164 78.6757 36.756 78.8375 36.756C78.9993 36.756 79.1553 36.8164 79.275 36.9253L82.825 40.4753C82.9339 40.595 82.9943 40.751 82.9943 40.9128C82.9943 41.0746 82.9339 41.2307 82.825 41.3503L78.85 45.3253L74.425 40.9003L78.4 36.9253ZM50.375 68.5753L52.2 63.1253L71.775 43.5503L76.2 47.9753L56.625 67.5503L51.175 69.3753C51.0634 69.4156 50.9426 69.4233 50.8268 69.3974C50.711 69.3716 50.6049 69.3133 50.521 69.2294C50.4371 69.1454 50.3788 69.0394 50.3529 68.9236C50.3271 68.8077 50.3347 68.687 50.375 68.5753ZM86.75 56.0753V77.3753C86.75 79.8617 85.7623 82.2463 84.0041 84.0045C82.246 85.7626 79.8614 86.7503 77.375 86.7503H42.375C39.8886 86.7503 37.504 85.7626 35.7459 84.0045C33.9877 82.2463 33 79.8617 33 77.3753V42.3753C33 39.8889 33.9877 37.5044 35.7459 35.7462C37.504 33.988 39.8886 33.0003 42.375 33.0003H63.65C64.1473 33.0003 64.6242 33.1979 64.9758 33.5495C65.3275 33.9011 65.525 34.378 65.525 34.8753C65.525 35.3726 65.3275 35.8495 64.9758 36.2012C64.6242 36.5528 64.1473 36.7503 63.65 36.7503H42.375C40.8832 36.7503 39.4524 37.343 38.3975 38.3979C37.3426 39.4527 36.75 40.8835 36.75 42.3753V77.3753C36.75 78.8672 37.3426 80.2979 38.3975 81.3528C39.4524 82.4077 40.8832 83.0003 42.375 83.0003H77.375C78.8668 83.0003 80.2976 82.4077 81.3525 81.3528C82.4074 80.2979 83 78.8672 83 77.3753V56.1003C83 55.603 83.1975 55.1261 83.5492 54.7745C83.9008 54.4229 84.3777 54.2253 84.875 54.2253C85.3723 54.2253 85.8492 54.4229 86.2008 54.7745C86.5525 55.1261 86.75 55.603 86.75 56.1003V56.0753Z" fill="#F4512C"/>
</svg>
