<svg width="209" height="195" viewBox="0 0 209 195" fill="none" xmlns="http://www.w3.org/2000/svg">
<circle cx="164" cy="150" r="42.3333" stroke="#5E1B89" stroke-width="5.33333"/>
<path fill-rule="evenodd" clip-rule="evenodd" d="M179 5.33333H10C7.42267 5.33333 5.33333 7.42267 5.33333 10V30.24H0V10C0 4.47715 4.47715 0 10 0H179C184.523 0 189 4.47715 189 10V113.569C187.294 112.414 185.514 111.362 183.667 110.421V10C183.667 7.42267 181.577 5.33333 179 5.33333Z" fill="#5E1B89"/>
<path fill-rule="evenodd" clip-rule="evenodd" d="M124.339 189C122.785 187.325 121.344 185.543 120.029 183.667H10C7.42267 183.667 5.33333 181.577 5.33333 179V75.6H0V179C0 184.523 4.47715 189 10 189H124.339Z" fill="#F4512C"/>
<circle cx="46" cy="57" r="19.3333" stroke="#5E1B89" stroke-width="5.33333"/>
<circle cx="46" cy="130" r="19.3333" stroke="#5E1B89" stroke-width="5.33333"/>
<line x1="79" y1="45.3333" x2="109" y2="45.3334" stroke="#5E1B89" stroke-width="5.3333"/>
<line x1="116.5" y1="45.3333" x2="169" y2="45.3334" stroke="#5E1B89" stroke-width="5.3333"/>
<line x1="79" y1="58.3333" x2="154" y2="58.3333" stroke="#5E1B89" stroke-width="5.33333"/>
<line x1="79" y1="71.3333" x2="124" y2="71.3333" stroke="#5E1B89" stroke-width="5.33333"/>
<path fill-rule="evenodd" clip-rule="evenodd" d="M116.563 117H116.5V117.058C116.521 117.039 116.542 117.019 116.563 117ZM106.331 130H79V135.333H103.834C104.543 133.526 105.377 131.744 106.331 130ZM101.616 143H79V148.333H100.979C101.067 146.556 101.281 144.774 101.616 143ZM79 122.333H109V117H79V122.333Z" fill="#5E1B89"/>
<path d="M159.665 159.2L156.242 131.987M172.186 131.987L168.764 159.2M156 133.123C158.738 128.502 165.857 122.034 172.429 133.123" stroke="#5E1B89" stroke-width="5.33"/>
<circle cx="163.886" cy="166.429" r="3.90643" stroke="#5E1B89" stroke-width="5.33"/>
</svg>
