<svg width="512" height="512" viewBox="0 0 512 512" fill="none" xmlns="http://www.w3.org/2000/svg">
<path d="M464 16H48C39.5131 16 31.3737 19.3714 25.3726 25.3726C19.3714 31.3737 16 39.5131 16 48V384C16 392.487 19.3714 400.626 25.3726 406.627C31.3737 412.629 39.5131 416 48 416H464C472.487 416 480.626 412.629 486.627 406.627C492.629 400.626 496 392.487 496 384V48C496 39.5131 492.629 31.3737 486.627 25.3726C480.626 19.3714 472.487 16 464 16Z" fill="#F9E3FF"/>
<path d="M472 376C469.878 376 467.843 375.157 466.343 373.657C464.843 372.157 464 370.122 464 368V128C464 125.878 464.843 123.843 466.343 122.343C467.843 120.843 469.878 120 472 120C474.122 120 476.157 120.843 477.657 122.343C479.157 123.843 480 125.878 480 128V368C480 370.122 479.157 372.157 477.657 373.657C476.157 375.157 474.122 376 472 376Z" fill="#FF7F4D"/>
<path d="M472 232C469.878 232 467.843 231.157 466.343 229.657C464.843 228.157 464 226.122 464 224V168C464 165.878 464.843 163.843 466.343 162.343C467.843 160.843 469.878 160 472 160C474.122 160 476.157 160.843 477.657 162.343C479.157 163.843 480 165.878 480 168V224C480 226.122 479.157 228.157 477.657 229.657C476.157 231.157 474.122 232 472 232ZM496 96H16V48C16 39.5131 19.3714 31.3737 25.3726 25.3726C31.3737 19.3714 39.5131 16 48 16H464C472.487 16 480.626 19.3714 486.627 25.3726C492.629 31.3737 496 39.5131 496 48V96Z" fill="#5E1B89"/>
<path d="M72 72C80.8366 72 88 64.8366 88 56C88 47.1634 80.8366 40 72 40C63.1634 40 56 47.1634 56 56C56 64.8366 63.1634 72 72 72Z" fill="#FF7F4D"/>
<path d="M120 72C128.837 72 136 64.8366 136 56C136 47.1634 128.837 40 120 40C111.163 40 104 47.1634 104 56C104 64.8366 111.163 72 120 72Z" fill="#FF7F4D"/>
<path d="M168 72C176.837 72 184 64.8366 184 56C184 47.1634 176.837 40 168 40C159.163 40 152 47.1634 152 56C152 64.8366 159.163 72 168 72Z" fill="#FF7F4D"/>
<path d="M104 304H72C67.7565 304 63.6869 302.314 60.6863 299.314C57.6857 296.313 56 292.243 56 288V256C56 251.757 57.6857 247.687 60.6863 244.686C63.6869 241.686 67.7565 240 72 240H104C108.243 240 112.313 241.686 115.314 244.686C118.314 247.687 120 251.757 120 256V288C120 292.243 118.314 296.313 115.314 299.314C112.313 302.314 108.243 304 104 304Z" fill="#9D71BC"/>
<path d="M160 144H416ZM160 176H320ZM160 256H416ZM160 288H320Z" fill="black"/>
<path d="M160 144H416M160 176H320M160 256H416M160 288H320" stroke="#FF7F4D" stroke-width="16" stroke-miterlimit="10"/>
<path d="M104 192H72C67.7565 192 63.6869 190.314 60.6863 187.314C57.6857 184.313 56 180.243 56 176V144C56 139.757 57.6857 135.687 60.6863 132.686C63.6869 129.686 67.7565 128 72 128H104C108.243 128 112.313 129.686 115.314 132.686C118.314 135.687 120 139.757 120 144V176C120 180.243 118.314 184.313 115.314 187.314C112.313 190.314 108.243 192 104 192Z" fill="#9D71BC"/>
<path d="M72 152L88 168L128 128M72 264L88 280L128 240" stroke="#5E1B89" stroke-width="16" stroke-miterlimit="1" stroke-linecap="round" stroke-linejoin="round"/>
<path d="M256 304C198.56 304 152 350.56 152 408C152 410.704 152.2 413.352 152.408 416H359.6C359.8 413.352 360 410.704 360 408C360 350.56 313.44 304 256 304Z" fill="#FF7F4D"/>
<path d="M256 496C304.601 496 344 456.601 344 408C344 359.399 304.601 320 256 320C207.399 320 168 359.399 168 408C168 456.601 207.399 496 256 496Z" fill="#9D71BC"/>
<path d="M208 400L256 448L360 352" stroke="#5E1B89" stroke-width="32" stroke-miterlimit="1" stroke-linecap="round" stroke-linejoin="round"/>
</svg>
