<svg xmlns="http://www.w3.org/2000/svg" version="1.1" xmlns:xlink="http://www.w3.org/1999/xlink" width="512" height="512" x="0" y="0" viewBox="0 0 512 512" style="enable-background:new 0 0 512 512" xml:space="preserve" class=""><g><path fill="#ffd9b3" d="m467.967 463.927-23.996 47.993-23.997-47.993z" opacity="1" data-original="#ffd9b3" class=""></path><path fill="#5e1b89" d="M467.967 47.992v23.996h-47.992V47.992c0-13.248 10.748-23.996 23.996-23.996 6.619 0 12.618 2.69 16.967 7.029 4.339 4.349 7.029 10.349 7.029 16.967z" opacity="1" data-original="#00879a" class=""></path><path fill="#9d71bc" d="M419.974 71.989h47.992v391.939h-47.992z" opacity="1" data-original="#8abeff" class=""></path><path fill="#a8f160" d="M84.027 423.934h47.992v47.992H84.027zM84.027 183.971h47.992v47.992H84.027z" opacity="1" data-original="#a8f160" class=""></path><path fill="#9d71bc" d="M84.027 343.946h47.992v47.992H84.027zM84.027 103.984h47.992v47.992H84.027z" opacity="1" data-original="#8abeff" class=""></path><path fill="#f6f8fc" d="M371.982 55.991v447.93H52.032V55.991h70.989v15.997h175.972V55.991zM132.019 471.926v-47.992H84.027v47.992zm0-79.987v-47.992H84.027v47.992zm0-159.975v-47.992H84.027v47.992zm0-79.988v-47.992H84.027v47.992z" opacity="1" data-original="#f6f8fc" class=""></path><path fill="#5e1b89" d="M228.969 7.012A23.89 23.89 0 0 0 212.001 0C198.769 0 188 10.764 188 23.996v15.997c0 4.418 3.592 8.006 8.009 8.006h31.995c4.417 0 7.996-3.589 7.996-8.006V23.996c0-6.402-2.488-12.426-7.031-16.984z" opacity="1" data-original="#006777" class=""></path><path fill="#5e1b89" d="M371.982 511.92H52.032a8 8 0 0 1-7.999-7.999V55.991a7.999 7.999 0 0 1 7.999-7.999h70.989a8 8 0 0 1 0 15.998h-62.99v431.932h303.952V63.99h-64.99a8 8 0 0 1 0-15.998h72.989a8 8 0 0 1 7.999 7.999v447.93a8 8 0 0 1-7.999 7.999z" opacity="1" data-original="#00879a" class=""></path><path fill="#ff7f4d" d="M298.993 32H123.02c-4.417 0-8.021 3.576-8.021 7.994v31.995c0 4.418 3.603 8.011 8.021 8.011h175.972c4.417 0 8.007-3.594 8.007-8.011V39.994C307 35.576 303.411 32 298.993 32z" opacity="1" data-original="#007b8b" class=""></path><path fill="#d9e2f1" d="M339.987 119.981H164.014a8 8 0 0 1 0-15.998h175.972a8 8 0 0 1 .001 15.998zM339.987 151.976H164.014a8 8 0 0 1 0-15.998h175.972a8 8 0 0 1 .001 15.998zM339.987 199.969H164.014a8 8 0 0 1 0-15.998h175.972a8 8 0 0 1 .001 15.998zM339.987 231.964H164.014a8 8 0 0 1 0-15.998h175.972a8 8 0 0 1 .001 15.998zM339.987 279.956H164.014a8 8 0 0 1 0-15.998h175.972a8 8 0 0 1 .001 15.998zM339.987 311.951H164.014a8 8 0 0 1 0-15.998h175.972a8 8 0 0 1 .001 15.998zM339.987 359.944H164.014a8 8 0 0 1 0-15.998h175.972a8 8 0 0 1 .001 15.998zM339.987 391.939H164.014a8 8 0 0 1 0-15.998h175.972a8 8 0 0 1 .001 15.998zM339.987 431.932H164.014a8 8 0 0 1 0-15.998h175.972a8 8 0 0 1 .001 15.998zM339.987 463.927H164.014a8 8 0 0 1 0-15.998h175.972a8 8 0 0 1 .001 15.998z" opacity="1" data-original="#d9e2f1" class=""></path><path fill="#ff7f40" d="M100.715 312.231a7.977 7.977 0 0 1-5.656-2.342L78.09 292.921a8 8 0 1 1 11.313-11.313l11.312 11.313 33.927-33.928a8 8 0 1 1 11.313 11.313l-39.584 39.584a7.98 7.98 0 0 1-5.656 2.341z" opacity="1" data-original="#ff7f40" class=""></path></g></svg>