<svg width="120" height="120" viewBox="0 0 120 120" fill="none" xmlns="http://www.w3.org/2000/svg">
<circle cx="60" cy="60" r="60" fill="#E6FEE2"/>
<path d="M58.596 70.511C57.702 70.511 56.979 69.788 56.979 68.894C56.979 66.779 57.279 64.952 57.876 63.416C58.314 62.258 59.025 61.091 60.003 59.912C60.723 59.054 62.013 57.8 63.879 56.156C65.745 54.509 66.957 53.198 67.518 52.22C68.079 51.242 68.355 50.174 68.355 49.016C68.355 46.919 67.536 45.08 65.901 43.493C64.266 41.906 62.259 41.114 59.883 41.114C57.588 41.114 55.671 41.834 54.135 43.271C53.013 44.321 52.17 45.803 51.612 47.717C51.228 49.031 49.947 49.871 48.588 49.709C46.866 49.505 45.732 47.801 46.224 46.136C46.98 43.577 48.246 41.516 50.019 39.95C52.482 37.769 55.74 36.68 59.793 36.68C64.083 36.68 67.506 37.847 70.062 40.184C72.618 42.521 73.893 45.344 73.893 48.656C73.893 50.573 73.443 52.34 72.546 53.954C71.649 55.571 69.891 57.536 67.278 59.852C65.523 61.409 64.374 62.558 63.834 63.296C63.294 64.034 62.895 64.883 62.637 65.84C62.445 66.551 62.313 67.595 62.241 68.966C62.196 69.83 61.479 70.508 60.615 70.508H58.596V70.511ZM56.679 78.251C56.679 76.556 58.053 75.182 59.748 75.182C61.443 75.182 62.817 76.556 62.817 78.251C62.817 79.946 61.443 81.32 59.748 81.32C58.053 81.32 56.679 79.946 56.679 78.251Z" fill="#2EDE28"/>
</svg>
