<svg width="120" height="120" viewBox="0 0 120 120" fill="none" xmlns="http://www.w3.org/2000/svg">
<path fill-rule="evenodd" clip-rule="evenodd" d="M83.7588 40.3324L41.3324 82.7588L37.5611 78.9875L79.9875 36.5611L83.7588 40.3324Z" fill="#5E1B89"/>
<path fill-rule="evenodd" clip-rule="evenodd" d="M78.6676 82.7588L36.2412 40.3324L40.0124 36.5611L82.4388 78.9876L78.6676 82.7588Z" fill="#5E1B89"/>
<path fill-rule="evenodd" clip-rule="evenodd" d="M106.327 89.036C111.611 80.6229 114.667 70.6683 114.667 60C114.667 29.8084 90.1916 5.3333 60 5.3333C46.6121 5.3333 34.3482 10.1459 24.844 18.1355C23.8074 16.6517 22.4439 15.4133 20.8579 14.5245C31.365 5.47255 45.0434 0 60 0C93.1371 0 120 26.8629 120 60C120 70.9387 117.073 81.1937 111.959 90.0244C110.161 89.4807 108.275 89.1422 106.327 89.036ZM81.1359 110.431C74.6339 113.159 67.493 114.667 60 114.667C29.8084 114.667 5.3333 90.1916 5.3333 60C5.3333 51.4806 7.28212 43.4164 10.7583 36.2288C9.0441 35.5809 7.51715 34.5518 6.28087 33.2448C2.26123 41.2999 0 50.3859 0 60C0 93.1371 26.8629 120 60 120C67.465 120 74.6115 118.637 81.2043 116.146C81.0695 115.116 81 114.066 81 113C81 112.132 81.0461 111.275 81.1359 110.431Z" fill="#F4512C"/>
<path fill-rule="evenodd" clip-rule="evenodd" d="M114.667 60C114.667 70.6683 111.611 80.6229 106.327 89.036C108.275 89.1422 110.161 89.4807 111.959 90.0244C117.073 81.1937 120 70.9387 120 60C120 26.8629 93.1371 0 60 0C45.0434 0 31.365 5.47255 20.8579 14.5245C22.4439 15.4133 23.8074 16.6517 24.844 18.1355C34.3482 10.1459 46.6121 5.3333 60 5.3333C90.1916 5.3333 114.667 29.8084 114.667 60Z" fill="#5E1B89"/>
</svg>
