<svg width="185" height="265" viewBox="0 0 185 265" fill="none" xmlns="http://www.w3.org/2000/svg">
<path fill-rule="evenodd" clip-rule="evenodd" d="M35.2791 23.1643H10C4.47715 23.1643 0 27.6415 0 33.1643V51.8881H5.3333V33.1643C5.3333 30.587 7.42266 28.4976 10 28.4976H35.2791V23.1643ZM148.86 28.4976H175C177.577 28.4976 179.667 30.587 179.667 33.1643V242.762H185V33.1643C185 27.6415 180.523 23.1643 175 23.1643H148.86V28.4976ZM10 259.667H164.349V265H10C4.47716 265 0 260.523 0 255V74.1259H5.3333V255C5.3333 257.577 7.42265 259.667 10 259.667Z" fill="#F4512C"/>
<path fill-rule="evenodd" clip-rule="evenodd" d="M10 23.1643H35.2791V28.4976H10C7.42266 28.4976 5.3333 30.587 5.3333 33.1643V51.8881H0V33.1643C0 27.6415 4.47715 23.1643 10 23.1643ZM175 28.4976H148.86V23.1643H175C180.523 23.1643 185 27.6415 185 33.1643V242.762H179.667V33.1643C179.667 30.587 177.577 28.4976 175 28.4976Z" fill="#5E1B89"/>
<rect x="37.9456" y="2.6665" width="108.248" height="40.9957" rx="7.3335" stroke="#5E1B89" stroke-width="5.333"/>
<path d="M51.7578 91.8466C51.7578 100.862 45.0162 107.827 37.1076 107.827C29.1989 107.827 22.4573 100.862 22.4573 91.8466C22.4573 82.8314 29.1989 75.866 37.1076 75.866C45.0162 75.866 51.7578 82.8314 51.7578 91.8466Z" stroke="#5E1B89" stroke-width="5.3333"/>
<path d="M51.7578 148.715C51.7578 157.73 45.0162 164.696 37.1076 164.696C29.1989 164.696 22.4573 157.73 22.4573 148.715C22.4573 139.7 29.1989 132.734 37.1076 132.734C45.0162 132.734 51.7578 139.7 51.7578 148.715Z" stroke="#5E1B89" stroke-width="5.3333"/>
<path d="M51.7578 204.657C51.7578 213.672 45.0162 220.638 37.1076 220.638C29.1989 220.638 22.4573 213.672 22.4573 204.657C22.4573 195.642 29.1989 188.676 37.1076 188.676C45.0162 188.676 51.7578 195.642 51.7578 204.657Z" stroke="#5E1B89" stroke-width="5.3333"/>
<line x1="62.814" y1="83.5047" x2="75.1751" y2="83.5047" stroke="#5E1B89" stroke-width="5.3333"/>
<line x1="87.5363" y1="83.5047" x2="99.8974" y2="83.5047" stroke="#5E1B89" stroke-width="5.3333"/>
<line x1="112.259" y1="83.5047" x2="161.703" y2="83.5047" stroke="#5E1B89" stroke-width="5.3333"/>
<line x1="62.814" y1="92.0236" x2="161.703" y2="92.0236" stroke="#5E1B89" stroke-width="5.3333"/>
<line x1="62.814" y1="100.543" x2="112.259" y2="100.543" stroke="#5E1B89" stroke-width="5.3333"/>
<line x1="62.814" y1="195.26" x2="75.1751" y2="195.26" stroke="#5E1B89" stroke-width="5.3333"/>
<line x1="87.5363" y1="195.261" x2="99.8974" y2="195.261" stroke="#5E1B89" stroke-width="5.3333"/>
<line x1="112.259" y1="195.261" x2="161.703" y2="195.261" stroke="#5E1B89" stroke-width="5.3333"/>
<line x1="62.814" y1="203.779" x2="161.703" y2="203.779" stroke="#5E1B89" stroke-width="5.3333"/>
<line x1="62.814" y1="212.298" x2="112.259" y2="212.298" stroke="#5E1B89" stroke-width="5.3333"/>
<line x1="62.814" y1="139.708" x2="75.1751" y2="139.708" stroke="#5E1B89" stroke-width="5.3333"/>
<line x1="87.5363" y1="139.708" x2="99.8974" y2="139.708" stroke="#5E1B89" stroke-width="5.3333"/>
<line x1="112.259" y1="139.708" x2="161.703" y2="139.708" stroke="#5E1B89" stroke-width="5.3333"/>
<line x1="62.814" y1="148.226" x2="161.703" y2="148.226" stroke="#5E1B89" stroke-width="5.3333"/>
<line x1="62.814" y1="156.745" x2="112.259" y2="156.745" stroke="#5E1B89" stroke-width="5.3333"/>
<path d="M61.62 31V19.06H57.54V17H68.28V19.06H64.18V31H61.62ZM74.042 31L79.162 17H82.042L87.162 31H84.442L83.322 27.76H77.862L76.722 31H74.042ZM78.562 25.76H82.622L80.582 19.94L78.562 25.76ZM98.5111 31.24C97.4844 31.24 96.5778 31.0667 95.7911 30.72C95.0044 30.36 94.3844 29.8533 93.9311 29.2C93.4778 28.5333 93.2444 27.7267 93.2311 26.78H95.9311C95.9578 27.4333 96.1911 27.9867 96.6311 28.44C97.0844 28.88 97.7044 29.1 98.4911 29.1C99.1711 29.1 99.7111 28.94 100.111 28.62C100.511 28.2867 100.711 27.8467 100.711 27.3C100.711 26.7267 100.531 26.28 100.171 25.96C99.8244 25.64 99.3578 25.38 98.7711 25.18C98.1844 24.98 97.5578 24.7667 96.8911 24.54C95.8111 24.1667 94.9844 23.6867 94.4111 23.1C93.8511 22.5133 93.5711 21.7333 93.5711 20.76C93.5578 19.9333 93.7511 19.2267 94.1511 18.64C94.5644 18.04 95.1244 17.58 95.8311 17.26C96.5378 16.9267 97.3511 16.76 98.2711 16.76C99.2044 16.76 100.024 16.9267 100.731 17.26C101.451 17.5933 102.011 18.06 102.411 18.66C102.824 19.26 103.044 19.9733 103.071 20.8H100.331C100.318 20.3067 100.124 19.8733 99.7511 19.5C99.3911 19.1133 98.8844 18.92 98.2311 18.92C97.6711 18.9067 97.1978 19.0467 96.8111 19.34C96.4378 19.62 96.2511 20.0333 96.2511 20.58C96.2511 21.0467 96.3978 21.42 96.6911 21.7C96.9844 21.9667 97.3844 22.1933 97.8911 22.38C98.3978 22.5667 98.9778 22.7667 99.6311 22.98C100.324 23.22 100.958 23.5 101.531 23.82C102.104 24.14 102.564 24.5667 102.911 25.1C103.258 25.62 103.431 26.2933 103.431 27.12C103.431 27.8533 103.244 28.5333 102.871 29.16C102.498 29.7867 101.944 30.2933 101.211 30.68C100.478 31.0533 99.5778 31.24 98.5111 31.24ZM110.43 31V17H112.99V22.66L118.17 17H121.33L116.17 22.56L121.47 31H118.33L114.33 24.52L112.99 25.98V31H110.43Z" fill="#5E1B89"/>
</svg>
